<svg width="400" height="120" viewBox="0 0 400 120" role="img" xmlns="http://www.w3.org/2000/svg">
<title>QA Task Logo</title>
<desc>Colorful interlocking checkmark logo with QA Task text</desc>

<!-- Blue checkmark shape -->
<path d="M40 15 L65 15 Q75 15 75 25 L75 65 L52 65 L52 32 L28 32 Q18 32 18 22 Q18 15 28 15 Z" fill="#5b9bd5" opacity="0.9"/>

<!-- Green checkmark shape -->
<path d="M15 38 L45 38 L45 72 L72 105 Q78 113 70 119 Q62 125 56 117 L22 78 L15 78 Q5 78 5 68 L5 48 Q5 38 15 38 Z" fill="#8dc63f" opacity="0.9"/>

<!-- Pink/magenta checkmark shape -->
<path d="M58 72 L78 50 Q85 42 92 48 Q99 54 92 62 L60 98 L74 115 Q80 124 72 130 Q64 136 58 127 L36 98 Q28 87 38 77 Z" fill="#e91e8c" opacity="0.9"/>

<!-- Purple bottom shape -->
<path d="M18 80 L38 100 L26 116 Q19 125 10 118 Q1 111 8 102 Z" fill="#7c3aed" opacity="0.85"/>

<!-- Overlap blend shapes -->
<path d="M45 38 L58 38 L58 65 L45 65 Z" fill="#6aaa3a" opacity="0.4"/>
<path d="M58 72 L75 55 L82 63 L65 80 Z" fill="#c0186e" opacity="0.35"/>

<!-- QA Task text -->
<text x="110" y="72" font-family="'Segoe UI', Arial, sans-serif" font-weight="700" font-size="42" fill="#7c3aed" letter-spacing="2">QA Task</text>
<text x="112" y="98" font-family="'Segoe UI', Arial, sans-serif" font-weight="400" font-size="14" fill="#6b7280" letter-spacing="1">Manage your QA tasks smarter</text>
</svg>
